# xmcd
#
# Track frame offsets: 
#        150
#        17649
#        36326
#        52698
#        71719
#        89567
#        104864
#        123990
#        136353
#        153060
#        180052
#        197102
#        210108
#        223489
#
# Disc length: 3181 seconds
#
# Revision: 0
# Processed by: cddbd v1.5.2PL0 Copyright (c) Steve Scherf et al.
# Submitted via: ExactAudioCopy v0.99pb4
#
DISCID=c20c6b0e
DTITLE=Bill Wyman - the Bill Wyman Solo Collection
DYEAR=2006
DGENRE=Rock
TTITLE0=Ride On Baby
TTITLE1=A New Fashion
TTITLE2=Nuclear Reactions
TTITLE3=Visions
TTITLE4=Jump Up
TTITLE5=Come Back Suzanne
TTITLE6=Rio de Janeiro
TTITLE7=Girls
TTITLE8=Seventeen
TTITLE9=(Si, Si) Je Suis Un Rock Star
TTITLE10=Rio de Janeiro (single edit)
TTITLE11=Come Back Suzanne (single edit)
TTITLE12=Visions (single edit)
TTITLE13=(Si, Si) Je Suis Un Rock Star (single edit)
EXTD=
EXTT0=
EXTT1=
EXTT2=
EXTT3=
EXTT4=
EXTT5=
EXTT6=
EXTT7=
EXTT8=
EXTT9=
EXTT10=
EXTT11=
EXTT12=
EXTT13=
PLAYORDER=
